<?xml version="1.0" encoding="UTF-8"?>
<!-- Generator: Bez 1.0.2u (15139) - http://www.juicybitssoftware.com/bez -->
<svg width="383.0" height="365.0" version="1.1" xmlns="http://www.w3.org/2000/svg" xmlns:xlink="http://www.w3.org/1999/xlink">
  <title>Lynx LAN Lettermark Inverted</title>
  <desc>Created with love by Luminotik</desc>
  <path id="Base" fill="#fff" d="M230.3,364.7 L368.2,226.8 C387.7,207.3 387.7,175.6 368.2,156.1 L226.8,14.6 C207.3,-4.9 175.6,-4.9 156.1,14.6 L14.6,156.1 C-4.9,175.6 -4.9,207.3 14.6,226.8 L152.5,364.7 L149.0,361.1 L233.8,361.1 L230.3,364.7"/>
  <path xmlns="http://www.w3.org/2000/svg" id="Path" fill="#1a222b" d="M41.1,191.0 L66.0,166.0 L216.4,316.0 L191.5,341.0 L41.1,191.0 Z"/>
  <path xmlns="http://www.w3.org/2000/svg" id="Path-1" fill="#fedd4c" d="M66.0,166.0 L90.9,141.0 L216.4,266.0 L267.2,216.0 L292.1,241.0 L216.4,316.0 L66.0,166.0 Z"/>
  <path id="Path-2" fill="#fedd4c" d="M341.9,191.0 L317.0,216.0 L166.6,66.0 L191.5,41.0 L341.9,191.0 Z"/>
  <path xmlns="http://www.w3.org/2000/svg" id="Path-3" fill="#1a222b" d="M317.0,216.0 L292.1,241.0 L166.6,116.0 L115.8,166.0 L90.9,141.0 L166.6,66.0 L317.0,216.0 Z"/>
</svg>
